<?xml version="1.0" encoding="UTF-8" standalone="no"?>
<svg width="120px" height="17px" viewBox="0 0 120 17" version="1.1" xmlns="http://www.w3.org/2000/svg" xmlns:xlink="http://www.w3.org/1999/xlink">
    <g id="Page-1" stroke="none" stroke-width="1" fill="none" fill-rule="evenodd">
        <g id="Group" fill="#FFFFFF">
            <polygon id="Fill-1" points="2.33653333 12.8074667 119.693867 12.8074667 119.693867 10.9258667 2.33653333 10.9258667"></polygon>
            <polygon id="Fill-3" points="2.33653333 16.5013333 119.693867 16.5013333 119.693867 14.6517333 2.33653333 14.6517333"></polygon>
            <polyline id="Fill-4" points="4.80106667 2.49653333 4.80106667 9.11093333 2.6672 9.11093333 2.6672 2.49653333 0 2.49653333 0 0.576 7.46826667 0.576 7.46826667 2.49653333 4.80106667 2.49653333"></polyline>
            <polyline id="Fill-6" points="15.8330667 5.85706667 10.232 5.85706667 10.232 9.11093333 8.09813333 9.11093333 8.09813333 0.576 10.232 0.576 10.232 3.82986667 15.8330667 3.82986667 15.8330667 0.576 17.9669333 0.576 17.9669333 9.11093333 15.8330667 9.11093333 15.8330667 5.85706667"></polyline>
            <polyline id="Fill-7" points="18.9498667 9.11093333 18.9498667 0.576 25.0202667 0.576 25.0202667 2.49653333 21.0832 2.49653333 21.0832 3.93653333 24.2736 3.93653333 24.2736 5.7504 21.0832 5.7504 21.0832 7.19093333 25.0202667 7.19093333 25.0202667 9.11093333 18.9498667 9.11093333"></polyline>
            <polyline id="Fill-8" points="30.7504 3.64853333 30.4298667 3.64853333 30.4298667 9.11093333 28.2965333 9.11093333 28.2965333 0.576 30.7930667 0.576 35.7648 5.9104 36.0848 5.9104 36.0848 0.576 38.2186667 0.576 38.2186667 9.11093333 35.8069333 9.11093333 30.7504 3.64853333"></polyline>
            <polyline id="Fill-9" points="39.2010667 9.11093333 39.2010667 0.576 45.2714667 0.576 45.2714667 2.49653333 41.3349333 2.49653333 41.3349333 3.93653333 44.5248 3.93653333 44.5248 5.7504 41.3349333 5.7504 41.3349333 7.19093333 45.2714667 7.19093333 45.2714667 9.11093333 39.2010667 9.11093333"></polyline>
            <polyline id="Fill-10" points="45.464 0.576 47.8432 0.576 49.6890667 7.37226667 50.1904 7.37226667 51.8762667 0.576 55.8874667 0.576 57.8186667 7.37226667 58.32 7.37226667 59.9205333 0.576 62.3424 0.576 59.9845333 9.11093333 56.1866667 9.11093333 54.2234667 2.3152 53.6261333 2.3152 51.8336 9.11093333 48.0352 9.11093333 45.464 0.576"></polyline>
            <path d="M64.7872,3.1792 C64.7872,1.376 66.2277333,0.405333333 68.0842667,0.405333333 C69.1616,0.405333333 70.3461333,0.682666667 71.0181333,1.06666667 L70.6128,2.88053333 C69.8976,2.45386667 68.8309333,2.22986667 68.0096,2.22986667 C67.3477333,2.22986667 66.8997333,2.48586667 66.8997333,2.93386667 C66.8997333,4.32053333 71.2741333,3.54186667 71.2741333,6.41173333 C71.2741333,7.9376 70.1856,9.2816 67.9136,9.2816 C66.9424,9.2816 65.8437333,9.15413333 64.9578667,8.7376 L65.0432,6.78506667 C65.9290667,7.21226667 66.8997333,7.4576 67.9776,7.4576 C68.9162667,7.4576 69.1509333,7.12693333 69.1509333,6.73173333 C69.1509333,5.45173333 64.7872,6.1984 64.7872,3.1792" id="Fill-11"></path>
            <path d="M78.3482667,8.9936 C77.6656,9.2496 77.0890667,9.2816 76.1290667,9.2816 C73.4832,9.2816 71.68,7.2016 71.68,4.83306667 C71.68,2.4112 73.5472,0.416 76.3210667,0.416 C77.0357333,0.416 77.8256,0.437333333 78.4869333,0.661333333 L78.2842667,2.6032 C77.5376,2.35786667 77.0037333,2.32586667 76.3850667,2.32586667 C74.8058667,2.32586667 73.8778667,3.25386667 73.8778667,4.83306667 C73.8778667,6.4224 74.9338667,7.3296 76.4384,7.3296 C77.3984,7.3296 77.6976,7.2336 78.3482667,7.02026667 L78.3482667,8.9936" id="Fill-12"></path>
            <polyline id="Fill-13" points="87.0656 5.85706667 81.464 5.85706667 81.464 9.11093333 79.3301333 9.11093333 79.3301333 0.576 81.464 0.576 81.464 3.82986667 87.0656 3.82986667 87.0656 0.576 89.1989333 0.576 89.1989333 9.11093333 87.0656 9.11093333 87.0656 5.85706667"></polyline>
            <path d="M94.7797333,7.4896 C96.4549333,7.4896 97.6602667,6.63573333 97.6602667,4.7584 C97.6602667,3.0512 96.4549333,2.19786667 94.7904,2.19786667 C93.1264,2.19786667 91.9205333,3.02986667 91.9205333,4.8224 C91.9205333,6.62506667 93.1264,7.4896 94.7797333,7.4896 L94.7797333,7.4896 L94.7797333,7.4896 L94.7797333,7.4896 L94.7797333,7.4896 L94.7797333,7.4896 L94.7797333,7.4896 L94.7797333,7.4896 L94.7797333,7.4896 Z M94.8117333,0.405333333 C97.7461333,0.405333333 99.8581333,1.92053333 99.8581333,4.80106667 C99.8581333,7.79893333 97.5749333,9.2816 94.8010667,9.2816 C92.0058667,9.2816 89.7226667,7.7776 89.7226667,4.81173333 C89.7226667,2.01653333 91.8032,0.405333333 94.8117333,0.405333333 L94.8117333,0.405333333 L94.8117333,0.405333333 L94.8117333,0.405333333 L94.8117333,0.405333333 L94.8117333,0.405333333 L94.8117333,0.405333333 L94.8117333,0.405333333 L94.8117333,0.405333333 Z" id="Fill-14"></path>
            <path d="M105.2896,7.4896 C106.9648,7.4896 108.170133,6.63573333 108.170133,4.7584 C108.170133,3.0512 106.9648,2.19786667 105.300267,2.19786667 C103.636267,2.19786667 102.4304,3.02986667 102.4304,4.8224 C102.4304,6.62506667 103.636267,7.4896 105.2896,7.4896 L105.2896,7.4896 L105.2896,7.4896 L105.2896,7.4896 L105.2896,7.4896 L105.2896,7.4896 L105.2896,7.4896 L105.2896,7.4896 L105.2896,7.4896 Z M105.3216,0.405333333 C108.255467,0.405333333 110.368,1.92053333 110.368,4.80106667 C110.368,7.79893333 108.0848,9.2816 105.310933,9.2816 C102.515733,9.2816 100.232533,7.7776 100.232533,4.81173333 C100.232533,2.01653333 102.313067,0.405333333 105.3216,0.405333333 L105.3216,0.405333333 L105.3216,0.405333333 L105.3216,0.405333333 L105.3216,0.405333333 L105.3216,0.405333333 L105.3216,0.405333333 L105.3216,0.405333333 L105.3216,0.405333333 Z" id="Fill-15"></path>
            <polyline id="Fill-16" points="110.955733 0.576 113.0896 0.576 113.0896 7.08426667 119.693867 7.08426667 119.693867 9.11093333 110.955733 9.11093333 110.955733 0.576"></polyline>
        </g>
    </g>
</svg>
